HIERARCHY
ROOT Hips
{
  OFFSET 0 0 0
  CHANNELS 6 Xposition Yposition Zposition Zrotation Xrotation Yrotation
  JOINT LeftUpLeg
  {
    OFFSET 4.06525 -3.90732 0.41711
    CHANNELS 3 Zrotation Xrotation Yrotation
    JOINT LeftLeg
    {
      OFFSET 0.00023 -18.4821 0.00367
      CHANNELS 3 Zrotation Xrotation Yrotation
      JOINT LeftFoot
      {
        OFFSET -0.00172 -15.2898 -0.02629
        CHANNELS 3 Zrotation Xrotation Yrotation
        JOINT LeftToeBase
        {
          OFFSET 0.36743 -3.19131 5.54287
          CHANNELS 3 Zrotation Xrotation Yrotation
          JOINT LeftToeBase2
          {
            OFFSET 0.08751 0.04849 1.36758
            CHANNELS 3 Zrotation Xrotation Yrotation
            JOINT LeftToeBase3
            {
              OFFSET 0.07484 0.06785 1.16707
            }
          }
        }
      }
    }
  }
  JOINT RightUpLeg
  {
    OFFSET -4.06526 -3.90731 0.41712
    CHANNELS 3 Zrotation Xrotation Yrotation
    JOINT RightLeg
    {
      OFFSET -0.00029 -18.4821 0.0044
      CHANNELS 3 Zrotation Xrotation Yrotation
      JOINT RightFoot
      {
        OFFSET 0.0016 -15.2898 -0.02569
        CHANNELS 3 Zrotation Xrotation Yrotation
        JOINT RightToeBase
        {
          OFFSET -0.3542 -3.19109 5.54386
          CHANNELS 3 Zrotation Xrotation Yrotation
          JOINT RightToeBase2
          {
            OFFSET -0.08424 0.04854 1.36778
            CHANNELS 3 Zrotation Xrotation Yrotation
            JOINT RightToeBase3
            {
              OFFSET -0.07205 0.0679 1.16725
            }
          }
        }
      }
    }
  }
  JOINT Spine
  {
    OFFSET 1e-005 4.46517 -0.10224
    CHANNELS 3 Zrotation Xrotation Yrotation
    JOINT Spine1
    {
      OFFSET 1e-005 4.46212 -0.1824
      CHANNELS 3 Zrotation Xrotation Yrotation
      JOINT Spine2
      {
        OFFSET 0 4.37937 -0.881
        CHANNELS 3 Zrotation Xrotation Yrotation
        JOINT Spine3
        {
          OFFSET 1e-005 4.68286 0.21414
          CHANNELS 3 Zrotation Xrotation Yrotation
          JOINT Neck
          {
            OFFSET 0 1.76964 0.82454
            CHANNELS 3 Zrotation Xrotation Yrotation
            JOINT Head
            {
              OFFSET 0 1.6961 0.93145
              CHANNELS 3 Zrotation Xrotation Yrotation
              JOINT Head_End
              {
                OFFSET 1e-005 7.8375 1.52603
              }
            }
          }
          JOINT LeftShoulder
          {
            OFFSET 1.19381 -0.75881 -0.02768
            CHANNELS 3 Zrotation Xrotation Yrotation
            JOINT LeftArm
            {
              OFFSET 5.18779 -2e-005 1e-005
              CHANNELS 3 Zrotation Xrotation Yrotation
              JOINT LeftForeArm
              {
                OFFSET 12.7364 -4e-005 2e-005
                CHANNELS 3 Zrotation Xrotation Yrotation
                JOINT LeftHand
                {
                  OFFSET 9.21452 -2e-005 1e-005
                  CHANNELS 3 Zrotation Xrotation Yrotation
                }
              }
            }
          }
          JOINT RightShoulder
          {
            OFFSET -1.19381 -0.75881 -0.02767
            CHANNELS 3 Zrotation Xrotation Yrotation
            JOINT RightArm
            {
              OFFSET -5.18779 1e-005 -1e-005
              CHANNELS 3 Zrotation Xrotation Yrotation
              JOINT RightForeArm
              {
                OFFSET -12.7364 3e-005 -2e-005
                CHANNELS 3 Zrotation Xrotation Yrotation
                JOINT RightHand
                {
                  OFFSET -9.21452 2e-005 -1e-005
                  CHANNELS 3 Zrotation Xrotation Yrotation
                }
              }
            }
          }
        }
      }
    }
  }
}
MOTION
Frames: 14
Frame Time: 	0.0166667
-0.0381877 40.9569 0.309485 1.21549 -7.07579 -0.736617 4.52643 4.35113 6.28173  -0.0066573 11.817 4.51765  -6.16308 -7.95632 -0.0640125  -2.44769e-006 -4.05562e-007 -4.54931e-009  -0 0 -0   -7.11736 0.621981 -1.93613  -0.360238 16.757 -1.78816  6.29711 -9.84598 0.218048  0.00642535 -0.00667649 1.29362e-009  -0 0 -0   -5.95656 0.8636 -1.90471  0.416323 1.14527 -1.27057  0.40708 1.17394 -1.26041  0.397606 1.20126 -1.24985  2.37937e-013 7.67309e-014 1.04138e-013  6.37502 22.7181 23.6723   0.120948 0.00119969 3.57665  -61.8768 15.7515 -4.44077  18.0565 25.2056 -37.4386  -10.7796 0.134163 7.85114  -0.113554 0.269985 -4.85984  42.3728 -11.2792 67.9859  5.1057 -9.74265 133.322  -39.0241 5.55746 -11.4891 
-0.0512036 40.9568 0.334 1.19598 -7.06751 -0.763508 4.58742 4.40924 6.33795  -0.042322 11.7798 4.4803  -6.17204 -7.97745 -0.0648271  -2.44769e-006 -4.05562e-007 -4.54931e-009  -0 0 -0   -7.06202 0.648804 -1.87551  -0.373734 16.7553 -1.82991  6.28937 -9.8849 0.224219  0.00642535 -0.00667649 1.29362e-009  -0 0 -0   -5.99506 0.852215 -1.90381  0.424971 1.14823 -1.2745  0.415622 1.17676 -1.26404  0.406055 1.20423 -1.25355  2.37937e-013 7.67309e-014 1.04138e-013  6.81886 22.4183 23.4794   0.120935 0.00141071 3.57712  -61.8952 15.7867 -4.36692  17.9575 25.0331 -37.4261  -10.4184 0.160244 7.93208  -0.113601 0.270798 -4.86352  42.5054 -11.658 68.2195  4.51903 -10.3356 133.546  -39.1503 5.55678 -11.4559 
-0.0640732 40.9563 0.357577 1.16788 -7.05871 -0.785808 4.66131 4.44732 6.40287  -0.0767436 11.7784 4.4266  -6.18216 -8.01478 -0.0657094  -2.44769e-006 -4.05562e-007 -4.54931e-009  -0 0 -0   -6.99366 0.675874 -1.80754  -0.390878 16.7541 -1.88529  6.28478 -9.92188 0.230089  0.00642535 -0.00667649 1.29362e-009  -0 0 -0   -6.02276 0.844831 -1.90154  0.430878 1.15169 -1.27762  0.42145 1.17999 -1.26725  0.411822 1.20843 -1.25645  2.37937e-013 7.67309e-014 1.04138e-013  7.30721 22.1225 23.2546   0.120922 0.00162229 3.57758  -61.9089 15.8178 -4.30557  17.8856 24.8822 -37.4389  -10.0846 0.184847 8.01017  -0.113652 0.271585 -4.86693  42.6257 -12.0169 68.4129  3.98073 -10.8895 133.758  -39.2977 5.56002 -11.4299 
-0.0773369 40.9556 0.380155 1.13788 -7.04888 -0.804628 4.73925 4.47789 6.47031  -0.111224 11.7833 4.36715  -6.19212 -8.05383 -0.0665451  -2.44769e-006 -4.05562e-007 -4.54931e-009  -0 0 -0   -6.92088 0.701171 -1.74092  -0.409002 16.7534 -1.94638  6.27993 -9.95768 0.235921  0.00642535 -0.00667649 1.29362e-009  -0 0 -0   -6.04498 0.839652 -1.89981  0.433238 1.15532 -1.28062  0.423817 1.18422 -1.27019  0.414093 1.21287 -1.25935  2.37937e-013 7.67309e-014 1.04138e-013  7.82348 21.8432 23.0148   0.120908 0.00183441 3.57803  -61.9178 15.8397 -4.25106  17.839 24.757 -37.4701  -9.78004 0.207733 8.08188  -0.113706 0.272355 -4.87024  42.7454 -12.3403 68.5743  3.48776 -11.4042 133.953  -39.4468 5.56461 -11.4084 
-0.0913277 40.9551 0.401668 1.10882 -7.03753 -0.821031 4.81726 4.50678 6.53733  -0.146843 11.7868 4.30791  -6.20156 -8.08715 -0.0673291  -2.44769e-006 -4.05562e-007 -4.54931e-009  -0 0 -0   -6.84747 0.723807 -1.68034  -0.426586 16.7536 -2.00915  6.27276 -9.99206 0.241805  0.00642535 -0.00667649 1.29362e-009  -0 0 -0   -6.06296 0.835664 -1.90055  0.434385 1.15915 -1.28382  0.42507 1.18831 -1.27323  0.415239 1.21732 -1.26235  2.37937e-013 7.67309e-014 1.04138e-013  8.36325 21.5847 22.7714   0.120895 0.00204706 3.57847  -61.9241 15.8439 -4.19773  17.8208 24.6654 -37.5183  -9.51315 0.228076 8.14435  -0.113761 0.273118 -4.87356  42.8783 -12.6141 68.7096  3.04148 -11.8751 134.124  -39.5785 5.56795 -11.3905 
-0.105868 40.9548 0.422084 1.08275 -7.02514 -0.835266 4.89226 4.53579 6.60268  -0.182981 11.7804 4.25068  -6.21004 -8.11368 -0.0680575  -2.44769e-006 -4.05562e-007 -4.54931e-009  -0 0 -0   -6.77625 0.742313 -1.62375  -0.443755 16.756 -2.07203  6.2641 -10.0264 0.247779  0.00642535 -0.00667649 1.29362e-009  -0 0 -0   -6.07662 0.831474 -1.9061  0.434637 1.1631 -1.28777  0.425469 1.19233 -1.2771  0.415518 1.22157 -1.26598  2.37937e-013 7.67309e-014 1.04138e-013  8.90225 21.3522 22.5312   0.120882 0.00226017 3.57891  -61.9284 15.8364 -4.14533  17.8247 24.6038 -37.5763  -9.28048 0.245952 8.19511  -0.113814 0.273885 -4.8773  43.0203 -12.8354 68.8267  2.63702 -12.3038 134.267  -39.6895 5.57013 -11.3738 
-0.121112 40.9547 0.441341 1.06482 -7.01255 -0.847803 4.95756 4.57284 6.66273  -0.220897 11.7512 4.20107  -6.21639 -8.12595 -0.0687253  -2.44769e-006 -4.05562e-007 -4.54931e-009  -0 0 -0   -6.7136 0.754502 -1.5711  -0.459747 16.7664 -2.13079  6.2536 -10.0627 0.254033  0.00642535 -0.00667649 1.29362e-009  -0 0 -0   -6.08845 0.824695 -1.91856  0.434305 1.16669 -1.29302  0.425264 1.19633 -1.28227  0.415195 1.22579 -1.27107  2.37937e-013 7.67309e-014 1.04138e-013  9.41726 21.1544 22.3025   0.120868 0.00247378 3.57933  -61.931 15.8201 -4.09167  17.8474 24.5748 -37.6366  -9.08383 0.260966 8.2291  -0.113865 0.274666 -4.88138  43.1768 -12.9925 68.9368  2.26912 -12.6909 134.372  -39.7681 5.57041 -11.3555 
-0.136399 40.9545 0.459462 1.04834 -6.99837 -0.859022 5.02025 4.60528 6.72157  -0.257502 11.7228 4.15379  -6.22267 -8.13588 -0.0693307  -2.44769e-006 -4.05562e-007 -4.54931e-009  -0 0 -0   -6.65255 0.761641 -1.52087  -0.475447 16.7798 -2.18943  6.2427 -10.0983 0.260216  0.00642535 -0.00667649 1.29362e-009  -0 0 -0   -6.09212 0.817292 -1.93776  0.433684 1.16948 -1.29934  0.42467 1.19934 -1.28854  0.414495 1.22935 -1.27727  2.37937e-013 7.67309e-014 1.04138e-013  9.90215 20.9867 22.0878   0.120855 0.00268779 3.57975  -61.9339 15.7965 -4.03678  17.8825 24.5679 -37.6993  -8.91573 0.273639 8.25117  -0.113912 0.275471 -4.88609  43.3348 -13.0967 69.0358  1.93995 -13.0345 134.448  -39.8217 5.56519 -11.3359 
-0.151063 40.954 0.476506 1.02678 -6.98141 -0.869924 5.08723 4.6186 6.78496  -0.289159 11.723 4.10285  -6.23128 -8.15789 -0.0698723  -2.44769e-006 -4.05562e-007 -4.54931e-009  -0 0 -0   -6.58602 0.763174 -1.46975  -0.492252 16.795 -2.25273  6.23353 -10.1324 0.266117  0.00642535 -0.00667649 1.29362e-009  -0 0 -0   -6.07919 0.809875 -1.96553  0.433088 1.17144 -1.30697  0.423933 1.20149 -1.29614  0.413651 1.23138 -1.28484  2.37937e-013 7.67309e-014 1.04138e-013  10.3418 20.8546 21.8949   0.120841 0.00290223 3.58016  -61.9396 15.769 -3.97799  17.9236 24.5722 -37.762  -8.77229 0.284353 8.26496  -0.113953 0.276312 -4.89144  43.4824 -13.151 69.1244  1.65178 -13.3311 134.494  -39.8502 5.55486 -11.3128 
-0.165307 40.9537 0.492347 1.00504 -6.96167 -0.879081 5.15226 4.62621 6.84453  -0.318654 11.7234 4.05623  -6.24006 -8.17719 -0.0703441  -2.44769e-006 -4.05562e-007 -4.54931e-009  -0 0 -0   -6.52052 0.763779 -1.423  -0.507901 16.8057 -2.31419  6.22371 -10.162 0.271528  0.00642535 -0.00667649 1.29362e-009  -0 0 -0   -6.0585 0.804124 -1.99804  0.432818 1.17286 -1.31519  0.423285 1.20305 -1.30436  0.412908 1.23258 -1.29306  2.37937e-013 7.67309e-014 1.04138e-013  10.7402 20.7368 21.716   0.120828 0.00311705 3.58055  -61.9469 15.7349 -3.92123  17.9734 24.5919 -37.8244  -8.64458 0.293624 8.26904  -0.113987 0.277232 -4.897  43.6223 -13.1691 69.1995  1.40029 -13.5873 134.524  -39.8624 5.5428 -11.2902 
-0.179187 40.9543 0.506891 0.986985 -6.93847 -0.885385 5.20972 4.64066 6.89156  -0.348548 11.6955 4.02321  -6.24695 -8.17917 -0.0707396  -2.44769e-006 -4.05562e-007 -4.54931e-009  -0 0 -0   -6.46148 0.763885 -1.38513  -0.520292 16.8019 -2.36878  6.2111 -10.1827 0.276043  0.00642535 -0.00667649 1.29362e-009  -0 0 -0   -6.03712 0.802239 -2.03231  0.43259 1.17425 -1.32353  0.422967 1.20456 -1.3127  0.412519 1.23378 -1.3014  2.37937e-013 7.67309e-014 1.04138e-013  11.0945 20.6139 21.5468   0.120814 0.00333223 3.58094  -61.9564 15.6903 -3.87039  18.0357 24.6324 -37.8859  -8.52397 0.301949 8.26023  -0.114014 0.278243 -4.90241  43.7515 -13.1616 69.2556  1.18283 -13.8089 134.546  -39.8685 5.53244 -11.2717 
-0.192482 40.955 0.52008 0.969128 -6.9128 -0.888803 5.26457 4.65 6.93267  -0.375864 11.6663 3.99369  -6.25402 -8.17776 -0.0710575  -2.44769e-006 -4.05562e-007 -4.54931e-009  -0 0 -0   -6.40543 0.7633 -1.35502  -0.530323 16.7925 -2.41697  6.19705 -10.1986 0.280044  0.00642535 -0.00667649 1.29362e-009  -0 0 -0   -6.01192 0.803268 -2.06771  0.431975 1.17547 -1.33164  0.422638 1.20589 -1.32082  0.412145 1.23512 -1.30952  2.37937e-013 7.67309e-014 1.04138e-013  11.4079 20.4862 21.3871   0.120801 0.00354774 3.58132  -61.9651 15.6417 -3.82897  18.1003 24.6783 -37.9456  -8.40567 0.309918 8.24727  -0.114039 0.279298 -4.90748  43.8762 -13.1412 69.3005  0.997804 -13.9972 134.564  -39.8636 5.52257 -11.2562 
-0.204854 40.9556 0.531835 0.947062 -6.88557 -0.889143 5.32238 4.64459 6.97227  -0.398033 11.6576 3.95956  -6.26304 -8.18427 -0.0712962  -2.44769e-006 -4.05562e-007 -4.54931e-009  -0 0 -0   -6.34894 0.761271 -1.33517  -0.537471 16.7794 -2.45581  6.18115 -10.2104 0.28361  0.00642535 -0.00667649 1.29362e-009  -0 0 -0   -5.98016 0.809174 -2.10231  0.431067 1.17641 -1.33893  0.421878 1.20692 -1.3281  0.411355 1.23638 -1.31681  2.37937e-013 7.67309e-014 1.04138e-013  11.6804 20.3428 21.2355   0.120787 0.00376355 3.58169  -61.9713 15.5917 -3.80247  18.1604 24.7186 -38.0033  -8.28244 0.318367 8.23809  -0.114069 0.280351 -4.91183  44.0043 -13.1252 69.3403  0.845227 -14.1545 134.584  -39.8436 5.51283 -11.244 
-0.216714 40.9559 0.542144 0.927543 -6.85624 -0.885796 5.37594 4.62988 7.00828  -0.416406 11.6568 3.92416  -6.27292 -8.1921 -0.0714507  -2.44769e-006 -4.05562e-007 -4.54931e-009  -0 0 -0   -6.29746 0.751716 -1.31908  -0.543925 16.7736 -2.49063  6.16642 -10.224 0.287237  0.00642535 -0.00667649 1.29362e-009  -0 0 -0   -5.94751 0.817565 -2.13708  0.429977 1.17694 -1.34566  0.420824 1.20754 -1.33485  0.410284 1.23734 -1.32357  2.37937e-013 7.67309e-014 1.04138e-013  11.9179 20.1977 21.0917   0.120774 0.00397963 3.58205  -61.972 15.5476 -3.78889  18.2093 24.7455 -38.0559  -8.15304 0.327347 8.23173  -0.114106 0.281357 -4.91544  44.1282 -13.1096 69.3751  0.71819 -14.2857 134.601  -39.8168 5.50398 -11.2346 
